<?xml version="1.0" encoding="utf-8" standalone="no"?>
<!DOCTYPE svg PUBLIC "-//W3C//DTD SVG 1.1//EN"
  "http://www.w3.org/Graphics/SVG/1.1/DTD/svg11.dtd">
<svg xmlns:xlink="http://www.w3.org/1999/xlink" width="460.8pt" height="345.6pt" viewBox="0 0 460.8 345.6" xmlns="http://www.w3.org/2000/svg" version="1.1">
 <metadata>
  <rdf:RDF xmlns:dc="http://purl.org/dc/elements/1.1/" xmlns:cc="http://creativecommons.org/ns#" xmlns:rdf="http://www.w3.org/1999/02/22-rdf-syntax-ns#">
   <cc:Work>
    <dc:type rdf:resource="http://purl.org/dc/dcmitype/StillImage"/>
    <dc:date>2023-10-12T19:30:05.662591</dc:date>
    <dc:format>image/svg+xml</dc:format>
    <dc:creator>
     <cc:Agent>
      <dc:title>Matplotlib v3.7.0, https://matplotlib.org/</dc:title>
     </cc:Agent>
    </dc:creator>
   </cc:Work>
  </rdf:RDF>
 </metadata>
 <defs>
  <style type="text/css">*{stroke-linejoin: round; stroke-linecap: butt}</style>
 </defs>
 <g id="figure_1">
  <g id="patch_1">
   <path d="M 0 345.6 
L 460.8 345.6 
L 460.8 0 
L 0 0 
z
" style="fill: #ffffff"/>
  </g>
  <g id="axes_1">
   <g id="patch_2">
    <path d="M 57.6 307.584 
L 414.72 307.584 
L 414.72 41.472 
L 57.6 41.472 
z
" style="fill: #ffffff"/>
   </g>
   <g id="matplotlib.axis_1">
    <g id="xtick_1">
     <g id="line2d_1">
      <defs>
       <path id="m0e53f9fa9d" d="M 0 0 
L 0 3.5 
" style="stroke: #000000; stroke-width: 0.8"/>
      </defs>
      <g>
       <use xlink:href="#m0e53f9fa9d" x="71.921477" y="307.584" style="stroke: #000000; stroke-width: 0.8"/>
      </g>
     </g>
     <g id="text_1">
      <!-- 0 -->
      <g transform="translate(68.740227 322.182437) scale(0.1 -0.1)">
       <defs>
        <path id="DejaVuSans-30" d="M 2034 4250 
Q 1547 4250 1301 3770 
Q 1056 3291 1056 2328 
Q 1056 1369 1301 889 
Q 1547 409 2034 409 
Q 2525 409 2770 889 
Q 3016 1369 3016 2328 
Q 3016 3291 2770 3770 
Q 2525 4250 2034 4250 
z
M 2034 4750 
Q 2819 4750 3233 4129 
Q 3647 3509 3647 2328 
Q 3647 1150 3233 529 
Q 2819 -91 2034 -91 
Q 1250 -91 836 529 
Q 422 1150 422 2328 
Q 422 3509 836 4129 
Q 1250 4750 2034 4750 
z
" transform="scale(0.015625)"/>
       </defs>
       <use xlink:href="#DejaVuSans-30"/>
      </g>
     </g>
    </g>
    <g id="xtick_2">
     <g id="line2d_2">
      <g>
       <use xlink:href="#m0e53f9fa9d" x="143.408434" y="307.584" style="stroke: #000000; stroke-width: 0.8"/>
      </g>
     </g>
     <g id="text_2">
      <!-- 10 -->
      <g transform="translate(137.045934 322.182437) scale(0.1 -0.1)">
       <defs>
        <path id="DejaVuSans-31" d="M 794 531 
L 1825 531 
L 1825 4091 
L 703 3866 
L 703 4441 
L 1819 4666 
L 2450 4666 
L 2450 531 
L 3481 531 
L 3481 0 
L 794 0 
L 794 531 
z
" transform="scale(0.015625)"/>
       </defs>
       <use xlink:href="#DejaVuSans-31"/>
       <use xlink:href="#DejaVuSans-30" x="63.623047"/>
      </g>
     </g>
    </g>
    <g id="xtick_3">
     <g id="line2d_3">
      <g>
       <use xlink:href="#m0e53f9fa9d" x="214.895391" y="307.584" style="stroke: #000000; stroke-width: 0.8"/>
      </g>
     </g>
     <g id="text_3">
      <!-- 20 -->
      <g transform="translate(208.532891 322.182437) scale(0.1 -0.1)">
       <defs>
        <path id="DejaVuSans-32" d="M 1228 531 
L 3431 531 
L 3431 0 
L 469 0 
L 469 531 
Q 828 903 1448 1529 
Q 2069 2156 2228 2338 
Q 2531 2678 2651 2914 
Q 2772 3150 2772 3378 
Q 2772 3750 2511 3984 
Q 2250 4219 1831 4219 
Q 1534 4219 1204 4116 
Q 875 4013 500 3803 
L 500 4441 
Q 881 4594 1212 4672 
Q 1544 4750 1819 4750 
Q 2544 4750 2975 4387 
Q 3406 4025 3406 3419 
Q 3406 3131 3298 2873 
Q 3191 2616 2906 2266 
Q 2828 2175 2409 1742 
Q 1991 1309 1228 531 
z
" transform="scale(0.015625)"/>
       </defs>
       <use xlink:href="#DejaVuSans-32"/>
       <use xlink:href="#DejaVuSans-30" x="63.623047"/>
      </g>
     </g>
    </g>
    <g id="xtick_4">
     <g id="line2d_4">
      <g>
       <use xlink:href="#m0e53f9fa9d" x="286.382348" y="307.584" style="stroke: #000000; stroke-width: 0.8"/>
      </g>
     </g>
     <g id="text_4">
      <!-- 30 -->
      <g transform="translate(280.019848 322.182437) scale(0.1 -0.1)">
       <defs>
        <path id="DejaVuSans-33" d="M 2597 2516 
Q 3050 2419 3304 2112 
Q 3559 1806 3559 1356 
Q 3559 666 3084 287 
Q 2609 -91 1734 -91 
Q 1441 -91 1130 -33 
Q 819 25 488 141 
L 488 750 
Q 750 597 1062 519 
Q 1375 441 1716 441 
Q 2309 441 2620 675 
Q 2931 909 2931 1356 
Q 2931 1769 2642 2001 
Q 2353 2234 1838 2234 
L 1294 2234 
L 1294 2753 
L 1863 2753 
Q 2328 2753 2575 2939 
Q 2822 3125 2822 3475 
Q 2822 3834 2567 4026 
Q 2313 4219 1838 4219 
Q 1578 4219 1281 4162 
Q 984 4106 628 3988 
L 628 4550 
Q 988 4650 1302 4700 
Q 1616 4750 1894 4750 
Q 2613 4750 3031 4423 
Q 3450 4097 3450 3541 
Q 3450 3153 3228 2886 
Q 3006 2619 2597 2516 
z
" transform="scale(0.015625)"/>
       </defs>
       <use xlink:href="#DejaVuSans-33"/>
       <use xlink:href="#DejaVuSans-30" x="63.623047"/>
      </g>
     </g>
    </g>
    <g id="xtick_5">
     <g id="line2d_5">
      <g>
       <use xlink:href="#m0e53f9fa9d" x="357.869306" y="307.584" style="stroke: #000000; stroke-width: 0.8"/>
      </g>
     </g>
     <g id="text_5">
      <!-- 40 -->
      <g transform="translate(351.506806 322.182437) scale(0.1 -0.1)">
       <defs>
        <path id="DejaVuSans-34" d="M 2419 4116 
L 825 1625 
L 2419 1625 
L 2419 4116 
z
M 2253 4666 
L 3047 4666 
L 3047 1625 
L 3713 1625 
L 3713 1100 
L 3047 1100 
L 3047 0 
L 2419 0 
L 2419 1100 
L 313 1100 
L 313 1709 
L 2253 4666 
z
" transform="scale(0.015625)"/>
       </defs>
       <use xlink:href="#DejaVuSans-34"/>
       <use xlink:href="#DejaVuSans-30" x="63.623047"/>
      </g>
     </g>
    </g>
    <g id="text_6">
     <!-- Carbon Cost(kg) -->
     <g transform="translate(195.470937 335.860562) scale(0.1 -0.1)">
      <defs>
       <path id="DejaVuSans-43" d="M 4122 4306 
L 4122 3641 
Q 3803 3938 3442 4084 
Q 3081 4231 2675 4231 
Q 1875 4231 1450 3742 
Q 1025 3253 1025 2328 
Q 1025 1406 1450 917 
Q 1875 428 2675 428 
Q 3081 428 3442 575 
Q 3803 722 4122 1019 
L 4122 359 
Q 3791 134 3420 21 
Q 3050 -91 2638 -91 
Q 1578 -91 968 557 
Q 359 1206 359 2328 
Q 359 3453 968 4101 
Q 1578 4750 2638 4750 
Q 3056 4750 3426 4639 
Q 3797 4528 4122 4306 
z
" transform="scale(0.015625)"/>
       <path id="DejaVuSans-61" d="M 2194 1759 
Q 1497 1759 1228 1600 
Q 959 1441 959 1056 
Q 959 750 1161 570 
Q 1363 391 1709 391 
Q 2188 391 2477 730 
Q 2766 1069 2766 1631 
L 2766 1759 
L 2194 1759 
z
M 3341 1997 
L 3341 0 
L 2766 0 
L 2766 531 
Q 2569 213 2275 61 
Q 1981 -91 1556 -91 
Q 1019 -91 701 211 
Q 384 513 384 1019 
Q 384 1609 779 1909 
Q 1175 2209 1959 2209 
L 2766 2209 
L 2766 2266 
Q 2766 2663 2505 2880 
Q 2244 3097 1772 3097 
Q 1472 3097 1187 3025 
Q 903 2953 641 2809 
L 641 3341 
Q 956 3463 1253 3523 
Q 1550 3584 1831 3584 
Q 2591 3584 2966 3190 
Q 3341 2797 3341 1997 
z
" transform="scale(0.015625)"/>
       <path id="DejaVuSans-72" d="M 2631 2963 
Q 2534 3019 2420 3045 
Q 2306 3072 2169 3072 
Q 1681 3072 1420 2755 
Q 1159 2438 1159 1844 
L 1159 0 
L 581 0 
L 581 3500 
L 1159 3500 
L 1159 2956 
Q 1341 3275 1631 3429 
Q 1922 3584 2338 3584 
Q 2397 3584 2469 3576 
Q 2541 3569 2628 3553 
L 2631 2963 
z
" transform="scale(0.015625)"/>
       <path id="DejaVuSans-62" d="M 3116 1747 
Q 3116 2381 2855 2742 
Q 2594 3103 2138 3103 
Q 1681 3103 1420 2742 
Q 1159 2381 1159 1747 
Q 1159 1113 1420 752 
Q 1681 391 2138 391 
Q 2594 391 2855 752 
Q 3116 1113 3116 1747 
z
M 1159 2969 
Q 1341 3281 1617 3432 
Q 1894 3584 2278 3584 
Q 2916 3584 3314 3078 
Q 3713 2572 3713 1747 
Q 3713 922 3314 415 
Q 2916 -91 2278 -91 
Q 1894 -91 1617 61 
Q 1341 213 1159 525 
L 1159 0 
L 581 0 
L 581 4863 
L 1159 4863 
L 1159 2969 
z
" transform="scale(0.015625)"/>
       <path id="DejaVuSans-6f" d="M 1959 3097 
Q 1497 3097 1228 2736 
Q 959 2375 959 1747 
Q 959 1119 1226 758 
Q 1494 397 1959 397 
Q 2419 397 2687 759 
Q 2956 1122 2956 1747 
Q 2956 2369 2687 2733 
Q 2419 3097 1959 3097 
z
M 1959 3584 
Q 2709 3584 3137 3096 
Q 3566 2609 3566 1747 
Q 3566 888 3137 398 
Q 2709 -91 1959 -91 
Q 1206 -91 779 398 
Q 353 888 353 1747 
Q 353 2609 779 3096 
Q 1206 3584 1959 3584 
z
" transform="scale(0.015625)"/>
       <path id="DejaVuSans-6e" d="M 3513 2113 
L 3513 0 
L 2938 0 
L 2938 2094 
Q 2938 2591 2744 2837 
Q 2550 3084 2163 3084 
Q 1697 3084 1428 2787 
Q 1159 2491 1159 1978 
L 1159 0 
L 581 0 
L 581 3500 
L 1159 3500 
L 1159 2956 
Q 1366 3272 1645 3428 
Q 1925 3584 2291 3584 
Q 2894 3584 3203 3211 
Q 3513 2838 3513 2113 
z
" transform="scale(0.015625)"/>
       <path id="DejaVuSans-20" transform="scale(0.015625)"/>
       <path id="DejaVuSans-73" d="M 2834 3397 
L 2834 2853 
Q 2591 2978 2328 3040 
Q 2066 3103 1784 3103 
Q 1356 3103 1142 2972 
Q 928 2841 928 2578 
Q 928 2378 1081 2264 
Q 1234 2150 1697 2047 
L 1894 2003 
Q 2506 1872 2764 1633 
Q 3022 1394 3022 966 
Q 3022 478 2636 193 
Q 2250 -91 1575 -91 
Q 1294 -91 989 -36 
Q 684 19 347 128 
L 347 722 
Q 666 556 975 473 
Q 1284 391 1588 391 
Q 1994 391 2212 530 
Q 2431 669 2431 922 
Q 2431 1156 2273 1281 
Q 2116 1406 1581 1522 
L 1381 1569 
Q 847 1681 609 1914 
Q 372 2147 372 2553 
Q 372 3047 722 3315 
Q 1072 3584 1716 3584 
Q 2034 3584 2315 3537 
Q 2597 3491 2834 3397 
z
" transform="scale(0.015625)"/>
       <path id="DejaVuSans-74" d="M 1172 4494 
L 1172 3500 
L 2356 3500 
L 2356 3053 
L 1172 3053 
L 1172 1153 
Q 1172 725 1289 603 
Q 1406 481 1766 481 
L 2356 481 
L 2356 0 
L 1766 0 
Q 1100 0 847 248 
Q 594 497 594 1153 
L 594 3053 
L 172 3053 
L 172 3500 
L 594 3500 
L 594 4494 
L 1172 4494 
z
" transform="scale(0.015625)"/>
       <path id="DejaVuSans-28" d="M 1984 4856 
Q 1566 4138 1362 3434 
Q 1159 2731 1159 2009 
Q 1159 1288 1364 580 
Q 1569 -128 1984 -844 
L 1484 -844 
Q 1016 -109 783 600 
Q 550 1309 550 2009 
Q 550 2706 781 3412 
Q 1013 4119 1484 4856 
L 1984 4856 
z
" transform="scale(0.015625)"/>
       <path id="DejaVuSans-6b" d="M 581 4863 
L 1159 4863 
L 1159 1991 
L 2875 3500 
L 3609 3500 
L 1753 1863 
L 3688 0 
L 2938 0 
L 1159 1709 
L 1159 0 
L 581 0 
L 581 4863 
z
" transform="scale(0.015625)"/>
       <path id="DejaVuSans-67" d="M 2906 1791 
Q 2906 2416 2648 2759 
Q 2391 3103 1925 3103 
Q 1463 3103 1205 2759 
Q 947 2416 947 1791 
Q 947 1169 1205 825 
Q 1463 481 1925 481 
Q 2391 481 2648 825 
Q 2906 1169 2906 1791 
z
M 3481 434 
Q 3481 -459 3084 -895 
Q 2688 -1331 1869 -1331 
Q 1566 -1331 1297 -1286 
Q 1028 -1241 775 -1147 
L 775 -588 
Q 1028 -725 1275 -790 
Q 1522 -856 1778 -856 
Q 2344 -856 2625 -561 
Q 2906 -266 2906 331 
L 2906 616 
Q 2728 306 2450 153 
Q 2172 0 1784 0 
Q 1141 0 747 490 
Q 353 981 353 1791 
Q 353 2603 747 3093 
Q 1141 3584 1784 3584 
Q 2172 3584 2450 3431 
Q 2728 3278 2906 2969 
L 2906 3500 
L 3481 3500 
L 3481 434 
z
" transform="scale(0.015625)"/>
       <path id="DejaVuSans-29" d="M 513 4856 
L 1013 4856 
Q 1481 4119 1714 3412 
Q 1947 2706 1947 2009 
Q 1947 1309 1714 600 
Q 1481 -109 1013 -844 
L 513 -844 
Q 928 -128 1133 580 
Q 1338 1288 1338 2009 
Q 1338 2731 1133 3434 
Q 928 4138 513 4856 
z
" transform="scale(0.015625)"/>
      </defs>
      <use xlink:href="#DejaVuSans-43"/>
      <use xlink:href="#DejaVuSans-61" x="69.824219"/>
      <use xlink:href="#DejaVuSans-72" x="131.103516"/>
      <use xlink:href="#DejaVuSans-62" x="172.216797"/>
      <use xlink:href="#DejaVuSans-6f" x="235.693359"/>
      <use xlink:href="#DejaVuSans-6e" x="296.875"/>
      <use xlink:href="#DejaVuSans-20" x="360.253906"/>
      <use xlink:href="#DejaVuSans-43" x="392.041016"/>
      <use xlink:href="#DejaVuSans-6f" x="461.865234"/>
      <use xlink:href="#DejaVuSans-73" x="523.046875"/>
      <use xlink:href="#DejaVuSans-74" x="575.146484"/>
      <use xlink:href="#DejaVuSans-28" x="614.355469"/>
      <use xlink:href="#DejaVuSans-6b" x="653.369141"/>
      <use xlink:href="#DejaVuSans-67" x="711.279297"/>
      <use xlink:href="#DejaVuSans-29" x="774.755859"/>
     </g>
    </g>
   </g>
   <g id="matplotlib.axis_2">
    <g id="ytick_1">
     <g id="line2d_6">
      <defs>
       <path id="mf415c049ed" d="M 0 0 
L -3.5 0 
" style="stroke: #000000; stroke-width: 0.8"/>
      </defs>
      <g>
       <use xlink:href="#mf415c049ed" x="57.6" y="293.190862" style="stroke: #000000; stroke-width: 0.8"/>
      </g>
     </g>
     <g id="text_7">
      <!-- 0.2 -->
      <g transform="translate(34.696875 296.990081) scale(0.1 -0.1)">
       <defs>
        <path id="DejaVuSans-2e" d="M 684 794 
L 1344 794 
L 1344 0 
L 684 0 
L 684 794 
z
" transform="scale(0.015625)"/>
       </defs>
       <use xlink:href="#DejaVuSans-30"/>
       <use xlink:href="#DejaVuSans-2e" x="63.623047"/>
       <use xlink:href="#DejaVuSans-32" x="95.410156"/>
      </g>
     </g>
    </g>
    <g id="ytick_2">
     <g id="line2d_7">
      <g>
       <use xlink:href="#mf415c049ed" x="57.6" y="254.775056" style="stroke: #000000; stroke-width: 0.8"/>
      </g>
     </g>
     <g id="text_8">
      <!-- 0.3 -->
      <g transform="translate(34.696875 258.574275) scale(0.1 -0.1)">
       <use xlink:href="#DejaVuSans-30"/>
       <use xlink:href="#DejaVuSans-2e" x="63.623047"/>
       <use xlink:href="#DejaVuSans-33" x="95.410156"/>
      </g>
     </g>
    </g>
    <g id="ytick_3">
     <g id="line2d_8">
      <g>
       <use xlink:href="#mf415c049ed" x="57.6" y="216.359249" style="stroke: #000000; stroke-width: 0.8"/>
      </g>
     </g>
     <g id="text_9">
      <!-- 0.4 -->
      <g transform="translate(34.696875 220.158468) scale(0.1 -0.1)">
       <use xlink:href="#DejaVuSans-30"/>
       <use xlink:href="#DejaVuSans-2e" x="63.623047"/>
       <use xlink:href="#DejaVuSans-34" x="95.410156"/>
      </g>
     </g>
    </g>
    <g id="ytick_4">
     <g id="line2d_9">
      <g>
       <use xlink:href="#mf415c049ed" x="57.6" y="177.943443" style="stroke: #000000; stroke-width: 0.8"/>
      </g>
     </g>
     <g id="text_10">
      <!-- 0.5 -->
      <g transform="translate(34.696875 181.742662) scale(0.1 -0.1)">
       <defs>
        <path id="DejaVuSans-35" d="M 691 4666 
L 3169 4666 
L 3169 4134 
L 1269 4134 
L 1269 2991 
Q 1406 3038 1543 3061 
Q 1681 3084 1819 3084 
Q 2600 3084 3056 2656 
Q 3513 2228 3513 1497 
Q 3513 744 3044 326 
Q 2575 -91 1722 -91 
Q 1428 -91 1123 -41 
Q 819 9 494 109 
L 494 744 
Q 775 591 1075 516 
Q 1375 441 1709 441 
Q 2250 441 2565 725 
Q 2881 1009 2881 1497 
Q 2881 1984 2565 2268 
Q 2250 2553 1709 2553 
Q 1456 2553 1204 2497 
Q 953 2441 691 2322 
L 691 4666 
z
" transform="scale(0.015625)"/>
       </defs>
       <use xlink:href="#DejaVuSans-30"/>
       <use xlink:href="#DejaVuSans-2e" x="63.623047"/>
       <use xlink:href="#DejaVuSans-35" x="95.410156"/>
      </g>
     </g>
    </g>
    <g id="ytick_5">
     <g id="line2d_10">
      <g>
       <use xlink:href="#mf415c049ed" x="57.6" y="139.527636" style="stroke: #000000; stroke-width: 0.8"/>
      </g>
     </g>
     <g id="text_11">
      <!-- 0.6 -->
      <g transform="translate(34.696875 143.326855) scale(0.1 -0.1)">
       <defs>
        <path id="DejaVuSans-36" d="M 2113 2584 
Q 1688 2584 1439 2293 
Q 1191 2003 1191 1497 
Q 1191 994 1439 701 
Q 1688 409 2113 409 
Q 2538 409 2786 701 
Q 3034 994 3034 1497 
Q 3034 2003 2786 2293 
Q 2538 2584 2113 2584 
z
M 3366 4563 
L 3366 3988 
Q 3128 4100 2886 4159 
Q 2644 4219 2406 4219 
Q 1781 4219 1451 3797 
Q 1122 3375 1075 2522 
Q 1259 2794 1537 2939 
Q 1816 3084 2150 3084 
Q 2853 3084 3261 2657 
Q 3669 2231 3669 1497 
Q 3669 778 3244 343 
Q 2819 -91 2113 -91 
Q 1303 -91 875 529 
Q 447 1150 447 2328 
Q 447 3434 972 4092 
Q 1497 4750 2381 4750 
Q 2619 4750 2861 4703 
Q 3103 4656 3366 4563 
z
" transform="scale(0.015625)"/>
       </defs>
       <use xlink:href="#DejaVuSans-30"/>
       <use xlink:href="#DejaVuSans-2e" x="63.623047"/>
       <use xlink:href="#DejaVuSans-36" x="95.410156"/>
      </g>
     </g>
    </g>
    <g id="ytick_6">
     <g id="line2d_11">
      <g>
       <use xlink:href="#mf415c049ed" x="57.6" y="101.11183" style="stroke: #000000; stroke-width: 0.8"/>
      </g>
     </g>
     <g id="text_12">
      <!-- 0.7 -->
      <g transform="translate(34.696875 104.911049) scale(0.1 -0.1)">
       <defs>
        <path id="DejaVuSans-37" d="M 525 4666 
L 3525 4666 
L 3525 4397 
L 1831 0 
L 1172 0 
L 2766 4134 
L 525 4134 
L 525 4666 
z
" transform="scale(0.015625)"/>
       </defs>
       <use xlink:href="#DejaVuSans-30"/>
       <use xlink:href="#DejaVuSans-2e" x="63.623047"/>
       <use xlink:href="#DejaVuSans-37" x="95.410156"/>
      </g>
     </g>
    </g>
    <g id="ytick_7">
     <g id="line2d_12">
      <g>
       <use xlink:href="#mf415c049ed" x="57.6" y="62.696023" style="stroke: #000000; stroke-width: 0.8"/>
      </g>
     </g>
     <g id="text_13">
      <!-- 0.8 -->
      <g transform="translate(34.696875 66.495242) scale(0.1 -0.1)">
       <defs>
        <path id="DejaVuSans-38" d="M 2034 2216 
Q 1584 2216 1326 1975 
Q 1069 1734 1069 1313 
Q 1069 891 1326 650 
Q 1584 409 2034 409 
Q 2484 409 2743 651 
Q 3003 894 3003 1313 
Q 3003 1734 2745 1975 
Q 2488 2216 2034 2216 
z
M 1403 2484 
Q 997 2584 770 2862 
Q 544 3141 544 3541 
Q 544 4100 942 4425 
Q 1341 4750 2034 4750 
Q 2731 4750 3128 4425 
Q 3525 4100 3525 3541 
Q 3525 3141 3298 2862 
Q 3072 2584 2669 2484 
Q 3125 2378 3379 2068 
Q 3634 1759 3634 1313 
Q 3634 634 3220 271 
Q 2806 -91 2034 -91 
Q 1263 -91 848 271 
Q 434 634 434 1313 
Q 434 1759 690 2068 
Q 947 2378 1403 2484 
z
M 1172 3481 
Q 1172 3119 1398 2916 
Q 1625 2713 2034 2713 
Q 2441 2713 2670 2916 
Q 2900 3119 2900 3481 
Q 2900 3844 2670 4047 
Q 2441 4250 2034 4250 
Q 1625 4250 1398 4047 
Q 1172 3844 1172 3481 
z
" transform="scale(0.015625)"/>
       </defs>
       <use xlink:href="#DejaVuSans-30"/>
       <use xlink:href="#DejaVuSans-2e" x="63.623047"/>
       <use xlink:href="#DejaVuSans-38" x="95.410156"/>
      </g>
     </g>
    </g>
    <g id="text_14">
     <!-- test accuracy -->
     <g transform="translate(28.617187 208.278) rotate(-90) scale(0.1 -0.1)">
      <defs>
       <path id="DejaVuSans-65" d="M 3597 1894 
L 3597 1613 
L 953 1613 
Q 991 1019 1311 708 
Q 1631 397 2203 397 
Q 2534 397 2845 478 
Q 3156 559 3463 722 
L 3463 178 
Q 3153 47 2828 -22 
Q 2503 -91 2169 -91 
Q 1331 -91 842 396 
Q 353 884 353 1716 
Q 353 2575 817 3079 
Q 1281 3584 2069 3584 
Q 2775 3584 3186 3129 
Q 3597 2675 3597 1894 
z
M 3022 2063 
Q 3016 2534 2758 2815 
Q 2500 3097 2075 3097 
Q 1594 3097 1305 2825 
Q 1016 2553 972 2059 
L 3022 2063 
z
" transform="scale(0.015625)"/>
       <path id="DejaVuSans-63" d="M 3122 3366 
L 3122 2828 
Q 2878 2963 2633 3030 
Q 2388 3097 2138 3097 
Q 1578 3097 1268 2742 
Q 959 2388 959 1747 
Q 959 1106 1268 751 
Q 1578 397 2138 397 
Q 2388 397 2633 464 
Q 2878 531 3122 666 
L 3122 134 
Q 2881 22 2623 -34 
Q 2366 -91 2075 -91 
Q 1284 -91 818 406 
Q 353 903 353 1747 
Q 353 2603 823 3093 
Q 1294 3584 2113 3584 
Q 2378 3584 2631 3529 
Q 2884 3475 3122 3366 
z
" transform="scale(0.015625)"/>
       <path id="DejaVuSans-75" d="M 544 1381 
L 544 3500 
L 1119 3500 
L 1119 1403 
Q 1119 906 1312 657 
Q 1506 409 1894 409 
Q 2359 409 2629 706 
Q 2900 1003 2900 1516 
L 2900 3500 
L 3475 3500 
L 3475 0 
L 2900 0 
L 2900 538 
Q 2691 219 2414 64 
Q 2138 -91 1772 -91 
Q 1169 -91 856 284 
Q 544 659 544 1381 
z
M 1991 3584 
L 1991 3584 
z
" transform="scale(0.015625)"/>
       <path id="DejaVuSans-79" d="M 2059 -325 
Q 1816 -950 1584 -1140 
Q 1353 -1331 966 -1331 
L 506 -1331 
L 506 -850 
L 844 -850 
Q 1081 -850 1212 -737 
Q 1344 -625 1503 -206 
L 1606 56 
L 191 3500 
L 800 3500 
L 1894 763 
L 2988 3500 
L 3597 3500 
L 2059 -325 
z
" transform="scale(0.015625)"/>
      </defs>
      <use xlink:href="#DejaVuSans-74"/>
      <use xlink:href="#DejaVuSans-65" x="39.208984"/>
      <use xlink:href="#DejaVuSans-73" x="100.732422"/>
      <use xlink:href="#DejaVuSans-74" x="152.832031"/>
      <use xlink:href="#DejaVuSans-20" x="192.041016"/>
      <use xlink:href="#DejaVuSans-61" x="223.828125"/>
      <use xlink:href="#DejaVuSans-63" x="285.107422"/>
      <use xlink:href="#DejaVuSans-63" x="340.087891"/>
      <use xlink:href="#DejaVuSans-75" x="395.068359"/>
      <use xlink:href="#DejaVuSans-72" x="458.447266"/>
      <use xlink:href="#DejaVuSans-61" x="499.560547"/>
      <use xlink:href="#DejaVuSans-63" x="560.839844"/>
      <use xlink:href="#DejaVuSans-79" x="615.820312"/>
     </g>
    </g>
   </g>
   <g id="line2d_13">
    <path d="M 82.00396 229.03818 
L 91.484864 158.884695 
L 101.635527 121.444524 
L 114.601585 104.929344 
L 120.613376 94.74066 
L 126.974084 87.621551 
L 133.723814 83.73054 
L 148.077517 80.704198 
L 157.903327 78.585759 
L 166.469828 76.741132 
L 172.329219 75.271194 
L 181.766007 73.729201 
L 190.208182 72.230441 
L 197.39105 71.351361 
L 204.100674 70.803737 
L 212.586965 69.722901 
L 220.010465 69.204099 
L 230.141075 68.296197 
L 242.886554 67.561228 
L 251.629519 66.754204 
L 261.198654 66.192169 
L 266.215833 65.572489 
L 274.718166 64.967221 
L 282.85153 64.318719 
L 287.956941 63.569339 
L 297.650403 63.151416 
L 309.120532 62.992893 
L 313.901089 62.214691 
L 317.534633 61.95529 
L 325.780292 61.465311 
L 335.108795 61.350022 
L 343.915929 60.802398 
L 356.015712 60.687109 
L 362.504757 59.995374 
L 367.541988 59.808029 
L 374.031033 59.490983 
L 380.937174 59.231583 
L 387.775135 58.712781 
L 398.487273 58.770426 
" clip-path="url(#pc94601ac58)" style="fill: none; stroke: #ff0000; stroke-width: 1.5; stroke-linecap: square"/>
   </g>
   <g id="line2d_14">
    <path d="M 75.800947 286.59632 
L 81.706058 152.904067 
L 85.73857 108.373609 
L 92.439211 92.751921 
L 99.818434 84.753732 
L 105.169129 82.275014 
L 111.71384 77.519334 
L 117.532323 75.227961 
L 121.551841 73.282455 
L 127.713948 72.432197 
L 131.421607 70.96226 
L 136.711662 69.132044 
L 142.678856 67.892685 
L 149.363615 66.783026 
L 155.306265 66.120113 
L 160.68006 65.010454 
L 166.163584 64.246663 
L 173.12122 63.007304 
L 177.981025 62.488503 
L 183.105044 61.811179 
L 192.098427 61.306788 
L 198.602712 61.105032 
L 204.187302 60.715931 
L 210.935587 60.269185 
L 216.638567 60.398886 
L 220.955507 59.721562 
L 228.770755 59.57745 
L 233.162772 59.07306 
L 239.411506 59.101882 
L 248.371681 58.683959 
L 251.72128 58.294858 
L 258.134606 57.776056 
L 265.168763 57.848112 
L 269.943384 57.358133 
L 274.873935 56.969032 
L 281.106787 56.896976 
L 285.858308 56.536697 
L 292.55173 56.378175 
L 298.231609 56.19083 
L 305.127162 56.118774 
L 312.171425 56.162007 
L 316.134636 56.19083 
L 323.021525 55.94584 
L 328.841453 55.599972 
L 334.519888 55.124404 
L 338.701111 55.182049 
L 343.950741 55.32616 
L 349.027115 55.225282 
L 352.850277 54.937059 
L 360.967278 55.109993 
L 364.76734 54.908237 
L 371.801497 54.865004 
L 378.611866 54.706481 
L 384.821617 54.735303 
L 389.682866 54.937059 
L 396.756005 54.562369 
" clip-path="url(#pc94601ac58)" style="fill: none; stroke: #000000; stroke-width: 1.5; stroke-linecap: square"/>
   </g>
   <g id="line2d_15">
    <path d="M 73.832727 293.182216 
L 76.941084 192.981479 
L 78.87043 138.305571 
L 84.059604 107.739518 
L 87.494302 94.178625 
L 89.684315 88.471809 
L 92.825743 84.23493 
L 96.727334 82.275014 
L 100.684927 81.741801 
L 104.7773 79.205438 
L 109.005856 77.187877 
L 112.449446 76.914065 
L 114.476133 75.083849 
L 117.645016 73.71479 
L 121.521803 72.504253 
L 125.576738 70.515514 
L 130.401195 68.829409 
L 134.490136 68.397075 
L 138.598264 68.137674 
L 142.235444 67.345061 
L 145.585125 67.056838 
L 148.813441 66.638914 
L 150.868675 66.249813 
L 153.966736 65.4572 
L 156.469208 65.428378 
L 159.717492 65.053688 
L 164.426045 64.145785 
L 168.184588 63.540517 
L 171.840019 63.137005 
L 176.722507 63.021715 
L 180.383398 62.70467 
L 183.934624 62.474092 
L 186.545824 62.142635 
L 189.115062 61.926468 
L 192.29424 61.595011 
L 194.829471 61.07621 
L 198.463218 60.744753 
L 202.46449 60.600642 
L 205.869237 60.341241 
L 208.34597 60.384475 
L 211.049987 59.966551 
L 215.165447 59.375694 
L 218.307187 59.029826 
L 220.39128 58.871304 
L 224.37742 59.217171 
L 227.485465 59.058649 
L 230.952766 58.900126 
L 234.67933 58.597492 
L 239.383047 58.683959 
L 243.35234 58.366913 
L 246.042942 58.727192 
L 249.845164 58.626314 
L 253.823037 58.338091 
L 256.238931 58.366913 
L 258.023202 58.366913 
L 261.434813 58.064279 
L 263.286162 57.718412 
L 267.191497 57.732823 
L 269.830152 57.459011 
L 272.657561 57.502244 
L 276.145454 57.502244 
L 280.059368 57.214021 
L 282.464967 57.141966 
L 286.742662 57.19961 
L 290.430072 57.113143 
L 292.468459 57.06991 
L 295.851522 56.839331 
L 298.085215 57.055499 
L 300.522793 56.406997 
L 303.703375 56.392586 
L 305.800884 56.19083 
L 308.877261 55.931429 
L 311.749753 55.859373 
L 314.371249 55.902607 
L 317.821702 55.643206 
L 322.747869 55.484683 
L 325.364529 55.239694 
L 327.408063 55.095582 
L 330.337961 54.937059 
L 332.694422 55.153227 
L 335.169439 55.052349 
L 337.553666 55.081171 
L 341.103489 55.32616 
L 343.8763 55.023526 
L 346.778743 55.095582 
L 350.520751 54.749714 
L 354.04343 54.576781 
L 357.805405 54.331791 
L 360.551698 54.014746 
L 363.28629 54.576781 
L 367.056533 54.202091 
L 371.09462 54.057979 
L 374.252115 54.057979 
L 377.030074 54.144446 
L 381.76577 53.885045 
L 383.651125 54.086801 
L 386.046429 54.288558 
L 389.047149 54.014746 
L 393.493006 54.057979 
L 397.023953 54.144446 
" clip-path="url(#pc94601ac58)" style="fill: none; stroke: #008000; stroke-width: 1.5; stroke-linecap: square"/>
   </g>
   <g id="line2d_16">
    <path d="M 74.116014 295.488 
L 78.700707 176.884223 
L 81.784417 119.282851 
L 86.810419 97.968758 
L 90.923228 87.491851 
L 94.23079 83.528784 
L 98.684291 80.300686 
L 102.204786 78.124602 
L 106.798839 76.755543 
L 110.433055 74.882093 
L 115.447202 74.420936 
L 119.778247 72.792476 
L 123.523063 71.812518 
L 127.651315 70.659626 
L 130.990544 69.910246 
L 134.811018 69.535556 
L 138.819309 68.065618 
L 142.511087 67.042427 
L 145.235852 66.019235 
L 149.418234 65.745423 
L 153.597496 64.909576 
L 158.26315 64.491653 
L 161.211924 63.987263 
L 166.114535 63.526106 
L 170.245906 62.920837 
L 175.571888 62.603792 
L 179.045585 62.171457 
L 184.233822 62.243513 
L 187.027537 61.796767 
L 191.416612 61.522956 
L 194.984218 61.335611 
L 198.947895 61.090621 
L 202.873353 60.298008 
L 206.529096 60.398886 
L 210.983377 60.08184 
L 215.004928 59.966551 
L 219.174519 59.57745 
L 223.020576 59.318049 
L 227.447714 59.173938 
L 232.305242 58.885715 
L 235.724809 58.496614 
L 238.31573 58.32368 
L 243.076073 58.338091 
L 247.526455 58.165157 
L 250.920438 57.876934 
L 254.985668 57.646356 
L 258.406014 57.646356 
L 262.220872 57.19961 
L 267.64045 57.300488 
L 271.934837 57.041088 
L 276.043745 57.257255 
L 280.12707 56.969032 
L 283.610127 57.098732 
L 288.227891 56.896976 
L 293.266373 56.969032 
L 297.447039 56.853743 
L 301.082347 56.781687 
L 305.303572 56.45023 
L 308.567143 56.536697 
L 312.791488 56.493464 
L 317.588646 56.392586 
L 320.935051 56.104363 
L 325.106981 55.974662 
L 328.599085 56.07554 
L 331.454886 55.94584 
L 334.948706 55.801728 
L 338.715049 55.744084 
L 343.197254 55.57115 
L 347.742012 55.412627 
L 350.838825 55.052349 
L 354.632935 54.850592 
L 358.656202 55.009115 
L 362.335188 54.749714 
L 366.524122 54.807359 
L 370.109823 54.836181 
L 375.376059 54.519136 
L 378.388634 54.230913 
L 382.200372 53.913868 
L 386.974287 53.81299 
L 390.391514 54.043568 
L 393.854135 53.827401 
L 397.552152 53.568 
" clip-path="url(#pc94601ac58)" style="fill: none; stroke: #bfbf00; stroke-width: 1.5; stroke-linecap: square"/>
   </g>
   <g id="patch_3">
    <path d="M 57.6 307.584 
L 57.6 41.472 
" style="fill: none; stroke: #000000; stroke-width: 0.8; stroke-linejoin: miter; stroke-linecap: square"/>
   </g>
   <g id="patch_4">
    <path d="M 414.72 307.584 
L 414.72 41.472 
" style="fill: none; stroke: #000000; stroke-width: 0.8; stroke-linejoin: miter; stroke-linecap: square"/>
   </g>
   <g id="patch_5">
    <path d="M 57.6 307.584 
L 414.72 307.584 
" style="fill: none; stroke: #000000; stroke-width: 0.8; stroke-linejoin: miter; stroke-linecap: square"/>
   </g>
   <g id="patch_6">
    <path d="M 57.6 41.472 
L 414.72 41.472 
" style="fill: none; stroke: #000000; stroke-width: 0.8; stroke-linejoin: miter; stroke-linecap: square"/>
   </g>
   <g id="legend_1">
    <g id="patch_7">
     <path d="M 224.649687 302.584 
L 407.72 302.584 
Q 409.72 302.584 409.72 300.584 
L 409.72 242.8715 
Q 409.72 240.8715 407.72 240.8715 
L 224.649687 240.8715 
Q 222.649687 240.8715 222.649687 242.8715 
L 222.649687 300.584 
Q 222.649687 302.584 224.649687 302.584 
z
" style="fill: #ffffff; opacity: 0.8; stroke: #cccccc; stroke-linejoin: miter"/>
    </g>
    <g id="line2d_17">
     <path d="M 226.649687 248.969937 
L 236.649687 248.969937 
L 246.649687 248.969937 
" style="fill: none; stroke: #ff0000; stroke-width: 1.5; stroke-linecap: square"/>
    </g>
    <g id="text_15">
     <!-- 1 cluster m= 1, sd=0(FedAvg) -->
     <g transform="translate(254.649687 252.469937) scale(0.1 -0.1)">
      <defs>
       <path id="DejaVuSans-6c" d="M 603 4863 
L 1178 4863 
L 1178 0 
L 603 0 
L 603 4863 
z
" transform="scale(0.015625)"/>
       <path id="DejaVuSans-6d" d="M 3328 2828 
Q 3544 3216 3844 3400 
Q 4144 3584 4550 3584 
Q 5097 3584 5394 3201 
Q 5691 2819 5691 2113 
L 5691 0 
L 5113 0 
L 5113 2094 
Q 5113 2597 4934 2840 
Q 4756 3084 4391 3084 
Q 3944 3084 3684 2787 
Q 3425 2491 3425 1978 
L 3425 0 
L 2847 0 
L 2847 2094 
Q 2847 2600 2669 2842 
Q 2491 3084 2119 3084 
Q 1678 3084 1418 2786 
Q 1159 2488 1159 1978 
L 1159 0 
L 581 0 
L 581 3500 
L 1159 3500 
L 1159 2956 
Q 1356 3278 1631 3431 
Q 1906 3584 2284 3584 
Q 2666 3584 2933 3390 
Q 3200 3197 3328 2828 
z
" transform="scale(0.015625)"/>
       <path id="DejaVuSans-3d" d="M 678 2906 
L 4684 2906 
L 4684 2381 
L 678 2381 
L 678 2906 
z
M 678 1631 
L 4684 1631 
L 4684 1100 
L 678 1100 
L 678 1631 
z
" transform="scale(0.015625)"/>
       <path id="DejaVuSans-2c" d="M 750 794 
L 1409 794 
L 1409 256 
L 897 -744 
L 494 -744 
L 750 256 
L 750 794 
z
" transform="scale(0.015625)"/>
       <path id="DejaVuSans-64" d="M 2906 2969 
L 2906 4863 
L 3481 4863 
L 3481 0 
L 2906 0 
L 2906 525 
Q 2725 213 2448 61 
Q 2172 -91 1784 -91 
Q 1150 -91 751 415 
Q 353 922 353 1747 
Q 353 2572 751 3078 
Q 1150 3584 1784 3584 
Q 2172 3584 2448 3432 
Q 2725 3281 2906 2969 
z
M 947 1747 
Q 947 1113 1208 752 
Q 1469 391 1925 391 
Q 2381 391 2643 752 
Q 2906 1113 2906 1747 
Q 2906 2381 2643 2742 
Q 2381 3103 1925 3103 
Q 1469 3103 1208 2742 
Q 947 2381 947 1747 
z
" transform="scale(0.015625)"/>
       <path id="DejaVuSans-46" d="M 628 4666 
L 3309 4666 
L 3309 4134 
L 1259 4134 
L 1259 2759 
L 3109 2759 
L 3109 2228 
L 1259 2228 
L 1259 0 
L 628 0 
L 628 4666 
z
" transform="scale(0.015625)"/>
       <path id="DejaVuSans-41" d="M 2188 4044 
L 1331 1722 
L 3047 1722 
L 2188 4044 
z
M 1831 4666 
L 2547 4666 
L 4325 0 
L 3669 0 
L 3244 1197 
L 1141 1197 
L 716 0 
L 50 0 
L 1831 4666 
z
" transform="scale(0.015625)"/>
       <path id="DejaVuSans-76" d="M 191 3500 
L 800 3500 
L 1894 563 
L 2988 3500 
L 3597 3500 
L 2284 0 
L 1503 0 
L 191 3500 
z
" transform="scale(0.015625)"/>
      </defs>
      <use xlink:href="#DejaVuSans-31"/>
      <use xlink:href="#DejaVuSans-20" x="63.623047"/>
      <use xlink:href="#DejaVuSans-63" x="95.410156"/>
      <use xlink:href="#DejaVuSans-6c" x="150.390625"/>
      <use xlink:href="#DejaVuSans-75" x="178.173828"/>
      <use xlink:href="#DejaVuSans-73" x="241.552734"/>
      <use xlink:href="#DejaVuSans-74" x="293.652344"/>
      <use xlink:href="#DejaVuSans-65" x="332.861328"/>
      <use xlink:href="#DejaVuSans-72" x="394.384766"/>
      <use xlink:href="#DejaVuSans-20" x="435.498047"/>
      <use xlink:href="#DejaVuSans-6d" x="467.285156"/>
      <use xlink:href="#DejaVuSans-3d" x="564.697266"/>
      <use xlink:href="#DejaVuSans-20" x="648.486328"/>
      <use xlink:href="#DejaVuSans-31" x="680.273438"/>
      <use xlink:href="#DejaVuSans-2c" x="743.896484"/>
      <use xlink:href="#DejaVuSans-20" x="775.683594"/>
      <use xlink:href="#DejaVuSans-73" x="807.470703"/>
      <use xlink:href="#DejaVuSans-64" x="859.570312"/>
      <use xlink:href="#DejaVuSans-3d" x="923.046875"/>
      <use xlink:href="#DejaVuSans-30" x="1006.835938"/>
      <use xlink:href="#DejaVuSans-28" x="1070.458984"/>
      <use xlink:href="#DejaVuSans-46" x="1109.472656"/>
      <use xlink:href="#DejaVuSans-65" x="1161.492188"/>
      <use xlink:href="#DejaVuSans-64" x="1223.015625"/>
      <use xlink:href="#DejaVuSans-41" x="1286.492188"/>
      <use xlink:href="#DejaVuSans-76" x="1349.025391"/>
      <use xlink:href="#DejaVuSans-67" x="1408.205078"/>
      <use xlink:href="#DejaVuSans-29" x="1471.681641"/>
     </g>
    </g>
    <g id="line2d_18">
     <path d="M 226.649687 263.648062 
L 236.649687 263.648062 
L 246.649687 263.648062 
" style="fill: none; stroke: #000000; stroke-width: 1.5; stroke-linecap: square"/>
    </g>
    <g id="text_16">
     <!-- 1 cluster m= 0.6, sd=0 -->
     <g transform="translate(254.649687 267.148062) scale(0.1 -0.1)">
      <use xlink:href="#DejaVuSans-31"/>
      <use xlink:href="#DejaVuSans-20" x="63.623047"/>
      <use xlink:href="#DejaVuSans-63" x="95.410156"/>
      <use xlink:href="#DejaVuSans-6c" x="150.390625"/>
      <use xlink:href="#DejaVuSans-75" x="178.173828"/>
      <use xlink:href="#DejaVuSans-73" x="241.552734"/>
      <use xlink:href="#DejaVuSans-74" x="293.652344"/>
      <use xlink:href="#DejaVuSans-65" x="332.861328"/>
      <use xlink:href="#DejaVuSans-72" x="394.384766"/>
      <use xlink:href="#DejaVuSans-20" x="435.498047"/>
      <use xlink:href="#DejaVuSans-6d" x="467.285156"/>
      <use xlink:href="#DejaVuSans-3d" x="564.697266"/>
      <use xlink:href="#DejaVuSans-20" x="648.486328"/>
      <use xlink:href="#DejaVuSans-30" x="680.273438"/>
      <use xlink:href="#DejaVuSans-2e" x="743.896484"/>
      <use xlink:href="#DejaVuSans-36" x="775.683594"/>
      <use xlink:href="#DejaVuSans-2c" x="839.306641"/>
      <use xlink:href="#DejaVuSans-20" x="871.09375"/>
      <use xlink:href="#DejaVuSans-73" x="902.880859"/>
      <use xlink:href="#DejaVuSans-64" x="954.980469"/>
      <use xlink:href="#DejaVuSans-3d" x="1018.457031"/>
      <use xlink:href="#DejaVuSans-30" x="1102.246094"/>
     </g>
    </g>
    <g id="line2d_19">
     <path d="M 226.649687 278.326187 
L 236.649687 278.326187 
L 246.649687 278.326187 
" style="fill: none; stroke: #008000; stroke-width: 1.5; stroke-linecap: square"/>
    </g>
    <g id="text_17">
     <!-- 2 cluster m= 0.6, sd=0.4 -->
     <g transform="translate(254.649687 281.826187) scale(0.1 -0.1)">
      <use xlink:href="#DejaVuSans-32"/>
      <use xlink:href="#DejaVuSans-20" x="63.623047"/>
      <use xlink:href="#DejaVuSans-63" x="95.410156"/>
      <use xlink:href="#DejaVuSans-6c" x="150.390625"/>
      <use xlink:href="#DejaVuSans-75" x="178.173828"/>
      <use xlink:href="#DejaVuSans-73" x="241.552734"/>
      <use xlink:href="#DejaVuSans-74" x="293.652344"/>
      <use xlink:href="#DejaVuSans-65" x="332.861328"/>
      <use xlink:href="#DejaVuSans-72" x="394.384766"/>
      <use xlink:href="#DejaVuSans-20" x="435.498047"/>
      <use xlink:href="#DejaVuSans-6d" x="467.285156"/>
      <use xlink:href="#DejaVuSans-3d" x="564.697266"/>
      <use xlink:href="#DejaVuSans-20" x="648.486328"/>
      <use xlink:href="#DejaVuSans-30" x="680.273438"/>
      <use xlink:href="#DejaVuSans-2e" x="743.896484"/>
      <use xlink:href="#DejaVuSans-36" x="775.683594"/>
      <use xlink:href="#DejaVuSans-2c" x="839.306641"/>
      <use xlink:href="#DejaVuSans-20" x="871.09375"/>
      <use xlink:href="#DejaVuSans-73" x="902.880859"/>
      <use xlink:href="#DejaVuSans-64" x="954.980469"/>
      <use xlink:href="#DejaVuSans-3d" x="1018.457031"/>
      <use xlink:href="#DejaVuSans-30" x="1102.246094"/>
      <use xlink:href="#DejaVuSans-2e" x="1165.869141"/>
      <use xlink:href="#DejaVuSans-34" x="1197.65625"/>
     </g>
    </g>
    <g id="line2d_20">
     <path d="M 226.649687 293.004312 
L 236.649687 293.004312 
L 246.649687 293.004312 
" style="fill: none; stroke: #bfbf00; stroke-width: 1.5; stroke-linecap: square"/>
    </g>
    <g id="text_18">
     <!-- 3 cluster m= 0.6, sd=0.32 -->
     <g transform="translate(254.649687 296.504312) scale(0.1 -0.1)">
      <use xlink:href="#DejaVuSans-33"/>
      <use xlink:href="#DejaVuSans-20" x="63.623047"/>
      <use xlink:href="#DejaVuSans-63" x="95.410156"/>
      <use xlink:href="#DejaVuSans-6c" x="150.390625"/>
      <use xlink:href="#DejaVuSans-75" x="178.173828"/>
      <use xlink:href="#DejaVuSans-73" x="241.552734"/>
      <use xlink:href="#DejaVuSans-74" x="293.652344"/>
      <use xlink:href="#DejaVuSans-65" x="332.861328"/>
      <use xlink:href="#DejaVuSans-72" x="394.384766"/>
      <use xlink:href="#DejaVuSans-20" x="435.498047"/>
      <use xlink:href="#DejaVuSans-6d" x="467.285156"/>
      <use xlink:href="#DejaVuSans-3d" x="564.697266"/>
      <use xlink:href="#DejaVuSans-20" x="648.486328"/>
      <use xlink:href="#DejaVuSans-30" x="680.273438"/>
      <use xlink:href="#DejaVuSans-2e" x="743.896484"/>
      <use xlink:href="#DejaVuSans-36" x="775.683594"/>
      <use xlink:href="#DejaVuSans-2c" x="839.306641"/>
      <use xlink:href="#DejaVuSans-20" x="871.09375"/>
      <use xlink:href="#DejaVuSans-73" x="902.880859"/>
      <use xlink:href="#DejaVuSans-64" x="954.980469"/>
      <use xlink:href="#DejaVuSans-3d" x="1018.457031"/>
      <use xlink:href="#DejaVuSans-30" x="1102.246094"/>
      <use xlink:href="#DejaVuSans-2e" x="1165.869141"/>
      <use xlink:href="#DejaVuSans-33" x="1197.65625"/>
      <use xlink:href="#DejaVuSans-32" x="1261.279297"/>
     </g>
    </g>
   </g>
  </g>
 </g>
 <defs>
  <clipPath id="pc94601ac58">
   <rect x="57.6" y="41.472" width="357.12" height="266.112"/>
  </clipPath>
 </defs>
</svg>
